<svg xmlns="http://www.w3.org/2000/svg" viewBox="0 12.069999694824219 330.70001220703125 46.59000015258789" data-asc="0.96875" width="330.70001220703125" height="46.59000015258789"><defs/><g fill="currectColor"><g transform="translate(0, 0)"><path fill="currentColor" d="M0 48.44L0 12.07L7.56 12.07L7.56 25.75L7.79 25.75Q8.29 24.64 9.24 23.50Q10.19 22.35 11.73 21.58Q13.26 20.81 15.55 20.81Q18.54 20.81 21.06 22.36Q23.58 23.92 25.09 27.03Q26.60 30.15 26.60 34.84Q26.60 39.40 25.13 42.53Q23.67 45.67 21.16 47.27Q18.64 48.88 15.54 48.88Q13.33 48.88 11.80 48.15Q10.26 47.43 9.29 46.32Q8.31 45.21 7.79 44.07L7.46 44.07L7.46 48.44L0 48.44M7.40 34.80Q7.40 37.23 8.08 39.04Q8.75 40.86 10.03 41.86Q11.31 42.86 13.14 42.86Q14.99 42.86 16.26 41.84Q17.54 40.82 18.21 39.00Q18.87 37.18 18.87 34.80Q18.87 32.44 18.22 30.65Q17.56 28.85 16.28 27.84Q15.00 26.83 13.14 26.83Q11.29 26.83 10.02 27.81Q8.75 28.78 8.08 30.58Q7.40 32.37 7.40 34.80ZM44.05 48.97Q39.84 48.97 36.82 47.26Q33.79 45.54 32.16 42.39Q30.52 39.24 30.52 34.93Q30.52 30.72 32.16 27.54Q33.79 24.36 36.76 22.59Q39.74 20.81 43.75 20.81Q46.45 20.81 48.78 21.67Q51.12 22.53 52.87 24.25Q54.62 25.98 55.59 28.58Q56.57 31.18 56.57 34.66L56.57 36.74L33.54 36.74L33.54 32.05L49.45 32.05Q49.45 30.42 48.74 29.15Q48.03 27.89 46.78 27.18Q45.53 26.46 43.87 26.46Q42.15 26.46 40.83 27.25Q39.51 28.04 38.76 29.36Q38.01 30.68 38.00 32.30L38.00 36.75Q38.00 38.78 38.75 40.25Q39.51 41.73 40.89 42.52Q42.28 43.32 44.18 43.32Q45.44 43.32 46.48 42.97Q47.53 42.61 48.28 41.90Q49.02 41.19 49.41 40.16L56.41 40.63Q55.88 43.15 54.23 45.02Q52.59 46.89 50.01 47.93Q47.43 48.97 44.05 48.97ZM61.36 48.44L61.36 43.93L74.72 27.40L74.72 27.20L61.83 27.20L61.83 21.16L83.82 21.16L83.82 26.08L71.29 42.21L71.29 42.40L84.29 42.40L84.29 48.44L61.36 48.44ZM97.66 32.67L97.66 48.44L90.09 48.44L90.09 21.16L97.30 21.16L97.30 25.98L97.62 25.98Q98.53 23.60 100.66 22.20Q102.79 20.81 105.82 20.81Q108.66 20.81 110.78 22.05Q112.89 23.30 114.06 25.59Q115.23 27.89 115.23 31.07L115.23 48.44L107.67 48.44L107.67 32.42Q107.69 29.92 106.39 28.51Q105.10 27.10 102.82 27.10Q101.30 27.10 100.13 27.75Q98.97 28.41 98.32 29.66Q97.67 30.91 97.66 32.67ZM128.96 48.95Q126.35 48.95 124.31 48.04Q122.27 47.12 121.08 45.32Q119.90 43.52 119.90 40.82Q119.90 38.55 120.74 37.00Q121.57 35.46 123.01 34.52Q124.45 33.58 126.29 33.10Q128.13 32.62 130.15 32.42Q132.53 32.17 133.98 31.95Q135.44 31.73 136.10 31.29Q136.75 30.84 136.75 29.97L136.75 29.87Q136.75 28.18 135.70 27.25Q134.64 26.33 132.71 26.33Q130.66 26.33 129.46 27.23Q128.25 28.12 127.86 29.47L120.86 28.91Q121.40 26.42 122.96 24.60Q124.52 22.78 127.00 21.80Q129.47 20.81 132.74 20.81Q135.01 20.81 137.10 21.34Q139.19 21.87 140.81 22.99Q142.44 24.11 143.38 25.86Q144.32 27.61 144.32 30.04L144.32 48.44L137.14 48.44L137.14 44.66L136.93 44.66Q136.27 45.93 135.17 46.90Q134.07 47.87 132.53 48.41Q130.98 48.95 128.96 48.95M131.13 43.73Q132.79 43.73 134.07 43.07Q135.35 42.40 136.08 41.26Q136.81 40.13 136.81 38.69L136.81 35.80Q136.45 36.03 135.84 36.21Q135.23 36.40 134.46 36.55Q133.70 36.70 132.94 36.82Q132.17 36.93 131.55 37.02Q130.22 37.22 129.23 37.64Q128.23 38.07 127.68 38.79Q127.13 39.51 127.13 40.57Q127.13 42.12 128.26 42.92Q129.39 43.73 131.13 43.73ZM157.76 32.67L157.76 48.44L150.20 48.44L150.20 12.07L157.55 12.07L157.55 25.98L157.87 25.98Q158.79 23.56 160.85 22.19Q162.91 20.81 166.02 20.81Q168.86 20.81 170.98 22.04Q173.10 23.28 174.28 25.58Q175.46 27.88 175.44 31.07L175.44 48.44L167.88 48.44L167.88 32.42Q167.90 29.90 166.61 28.50Q165.32 27.10 163.01 27.10Q161.47 27.10 160.29 27.75Q159.11 28.41 158.44 29.66Q157.78 30.91 157.76 32.67ZM193.73 48.97Q189.60 48.97 186.59 47.20Q183.58 45.44 181.94 42.27Q180.31 39.10 180.31 34.91Q180.31 30.68 181.94 27.51Q183.58 24.34 186.59 22.58Q189.60 20.81 193.73 20.81Q197.87 20.81 200.88 22.58Q203.89 24.34 205.52 27.51Q207.16 30.68 207.16 34.91Q207.16 39.10 205.52 42.27Q203.89 45.44 200.88 47.20Q197.87 48.97 193.73 48.97M193.77 43.11Q195.65 43.11 196.91 42.04Q198.17 40.96 198.82 39.10Q199.47 37.23 199.47 34.85Q199.47 32.48 198.82 30.61Q198.17 28.75 196.91 27.66Q195.65 26.58 193.77 26.58Q191.87 26.58 190.58 27.66Q189.29 28.75 188.65 30.61Q188.00 32.48 188.00 34.85Q188.00 37.23 188.65 39.10Q189.29 40.96 190.58 42.04Q191.87 43.11 193.77 43.11ZM212.09 48.44L212.09 21.16L219.42 21.16L219.42 25.92L219.71 25.92Q220.45 23.38 222.21 22.08Q223.97 20.77 226.26 20.77Q226.83 20.77 227.49 20.85Q228.14 20.92 228.64 21.04L228.64 27.75Q228.11 27.59 227.17 27.47Q226.23 27.34 225.44 27.34Q223.77 27.34 222.47 28.06Q221.16 28.78 220.41 30.06Q219.66 31.34 219.66 33.01L219.66 48.44L212.09 48.44ZM237.20 58.66Q235.76 58.66 234.51 58.44Q233.26 58.22 232.44 57.88L234.14 52.24Q235.48 52.65 236.55 52.68Q237.62 52.72 238.41 52.18Q239.20 51.65 239.70 50.37L240.15 49.22L230.36 21.16L238.32 21.16L243.96 41.19L244.25 41.19L249.95 21.16L257.95 21.16L247.35 51.38Q246.59 53.59 245.29 55.23Q243.98 56.87 241.99 57.77Q240.00 58.66 237.20 58.66ZM266.25 48.90Q264.49 48.90 263.24 47.65Q261.99 46.40 261.99 44.64Q261.99 42.90 263.24 41.65Q264.49 40.41 266.25 40.41Q267.95 40.41 269.23 41.65Q270.51 42.90 270.51 44.64Q270.51 45.81 269.91 46.78Q269.32 47.75 268.36 48.32Q267.40 48.90 266.25 48.90ZM299.40 28.94L292.47 29.37Q292.29 28.48 291.71 27.76Q291.12 27.04 290.17 26.61Q289.22 26.17 287.91 26.17Q286.15 26.17 284.94 26.91Q283.74 27.65 283.74 28.87Q283.74 29.85 284.52 30.52Q285.30 31.20 287.20 31.61L292.13 32.60Q296.11 33.42 298.06 35.23Q300.02 37.04 300.02 39.99Q300.02 42.67 298.45 44.69Q296.88 46.72 294.15 47.84Q291.42 48.97 287.87 48.97Q282.46 48.97 279.25 46.71Q276.05 44.44 275.50 40.54L282.94 40.15Q283.27 41.80 284.57 42.66Q285.87 43.52 287.89 43.52Q289.88 43.52 291.10 42.75Q292.31 41.97 292.33 40.75Q292.31 39.72 291.46 39.05Q290.61 38.39 288.83 38.03L284.11 37.09Q280.11 36.29 278.17 34.32Q276.23 32.35 276.23 29.30Q276.23 26.67 277.65 24.77Q279.08 22.87 281.69 21.84Q284.29 20.81 287.78 20.81Q292.95 20.81 295.93 22.99Q298.90 25.18 299.40 28.94ZM311.65 40.59L311.67 31.52L312.77 31.52L321.50 21.16L330.18 21.16L318.45 34.87L316.65 34.87L311.65 40.59M304.79 48.44L304.79 12.07L312.36 12.07L312.36 48.44L304.79 48.44M321.84 48.44L313.81 36.56L318.86 31.21L330.70 48.44L321.84 48.44Z"/></g></g></svg>