<svg xmlns="http://www.w3.org/2000/svg" width="12" height="12" viewBox="0 0 12 12">
  <path fill="currentColor" d="M2.815 10.76c1.195 -0.4 2.85 -0.47 3.9 -1 0.45 -0.225 1.105 -0.05 1.54 -0.27 0.26 -0.135 0.555 -0.785 0.745 -0.785"/>
  <path fill="currentColor" d="M6.785 9v-2.06l-0.865 -0.825 -0.315 1.42a0.4 0.4 0 0 1 -0.185 0.25 0.4 0.4 0 0 1 -0.3 0.06l-2.04 -0.41a0.385 0.385 0 0 1 -0.265 -0.175 0.43 0.43 0 0 1 -0.065 -0.32 0.4 0.4 0 0 1 0.175 -0.275c0.1 -0.065 0.2 -0.085 0.32 -0.055l1.565 0.33 0.66 -3.335 -0.74 0.29v0.985a0.4 0.4 0 0 1 -0.12 0.295 0.4 0.4 0 0 1 -0.295 0.115 0.4 0.4 0 0 1 -0.29 -0.115 0.4 0.4 0 0 1 -0.12 -0.295V3.625c0 -0.085 0.02 -0.155 0.065 -0.22 0.05 -0.065 0.105 -0.115 0.18 -0.15l1.38 -0.6c0.24 -0.1 0.415 -0.165 0.53 -0.2q0.172 -0.045 0.315 -0.045c0.145 0 0.275 0.04 0.4 0.115q0.188 0.113 0.3 0.3l0.41 0.655c0.145 0.235 0.33 0.435 0.56 0.61 0.23 0.17 0.5 0.28 0.8 0.34 0.115 0.02 0.215 0.07 0.29 0.15q0.12 0.128 0.12 0.3c0 0.115 -0.04 0.215 -0.12 0.29a0.33 0.33 0 0 1 -0.28 0.09 3.1 3.1 0 0 1 -1.865 -1L6.75 5.5l0.74 0.7a0.41 0.41 0 0 1 0.125 0.3v2.5a0.4 0.4 0 0 1 -0.12 0.29 0.4 0.4 0 0 1 -0.295 0.12 0.4 0.4 0 0 1 -0.41 -0.415m0.205 -6.79c-0.225 0 -0.42 -0.08 -0.58 -0.24a0.8 0.8 0 0 1 -0.24 -0.585c0 -0.225 0.08 -0.42 0.24 -0.58a0.8 0.8 0 0 1 0.58 -0.24c0.23 0 0.42 0.08 0.585 0.24 0.16 0.16 0.24 0.355 0.24 0.58q0 0.338 -0.24 0.585 -0.24 0.24 -0.585 0.24"/>
</svg>
