<?xml version="1.0" encoding="utf-8"?>
<svg xmlns="http://www.w3.org/2000/svg" width="24" height="24" viewBox="0 0 24 24" xmlns:bx="https://boxy-svg.com">
  <defs>
    <bx:export>
      <bx:file format="svg" href="#object-0"/>
      <bx:file format="svg" href="#object-1" path="Untitled 2.svg"/>
    </bx:export>
  </defs>
  <path d="M 5.629 21.517 C 8.018 20.721 11.322 20.577 13.422 19.527 C 14.334 19.07 15.643 19.411 16.513 18.976 C 17.035 18.715 17.624 17.409 17.996 17.409" fill="currectColor"/>
  <path d="M 13.572 17.994 L 13.572 13.877 L 11.843 12.231 L 11.205 15.071 C 11.15 15.291 11.03 15.459 10.845 15.576 C 10.66 15.693 10.458 15.73 10.238 15.688 L 6.162 14.865 C 5.929 14.824 5.751 14.707 5.627 14.515 C 5.504 14.323 5.463 14.111 5.504 13.877 C 5.545 13.644 5.661 13.462 5.854 13.332 C 6.046 13.202 6.258 13.164 6.492 13.219 L 9.62 13.877 L 10.937 7.209 L 9.455 7.785 L 9.455 9.761 C 9.455 9.994 9.376 10.19 9.218 10.348 C 9.06 10.506 8.865 10.585 8.632 10.584 C 8.399 10.584 8.204 10.504 8.046 10.347 C 7.888 10.189 7.809 9.994 7.809 9.761 L 7.809 7.25 C 7.809 7.085 7.854 6.938 7.943 6.808 C 8.033 6.678 8.152 6.578 8.303 6.509 L 11.061 5.315 C 11.541 5.109 11.895 4.976 12.121 4.914 C 12.348 4.853 12.557 4.822 12.749 4.821 C 13.037 4.821 13.304 4.896 13.551 5.047 C 13.798 5.198 13.997 5.397 14.148 5.644 L 14.972 6.962 C 15.26 7.428 15.634 7.833 16.094 8.176 C 16.554 8.519 17.085 8.745 17.688 8.855 C 17.922 8.896 18.117 8.999 18.275 9.164 C 18.434 9.329 18.512 9.528 18.512 9.761 C 18.511 9.994 18.432 10.186 18.275 10.337 C 18.117 10.488 17.929 10.55 17.709 10.522 C 16.968 10.413 16.275 10.183 15.63 9.832 C 14.985 9.482 14.436 9.047 13.984 8.526 L 13.49 10.996 L 14.972 12.395 C 15.054 12.478 15.116 12.57 15.157 12.674 C 15.198 12.777 15.219 12.883 15.219 12.992 L 15.219 17.994 C 15.219 18.227 15.14 18.423 14.981 18.581 C 14.823 18.739 14.628 18.818 14.395 18.817 C 14.163 18.816 13.967 18.737 13.809 18.58 C 13.651 18.422 13.572 18.227 13.572 17.994 M 13.984 4.409 C 13.531 4.409 13.143 4.248 12.821 3.926 C 12.499 3.604 12.338 3.216 12.337 2.763 C 12.336 2.309 12.498 1.922 12.821 1.6 C 13.144 1.279 13.532 1.117 13.984 1.116 C 14.435 1.115 14.823 1.276 15.147 1.6 C 15.471 1.924 15.632 2.312 15.63 2.763 C 15.629 3.214 15.467 3.602 15.147 3.926 C 14.826 4.25 14.439 4.412 13.984 4.409" fill="currentColor" style="" id="object-0"/>
</svg>