<svg xmlns="http://www.w3.org/2000/svg" viewBox="0 9.319999694824219 370.5400085449219 49.34000015258789" data-asc="0.96875" width="370.5400085449219" height="49.34000015258789"><defs/><g fill="#000000"><g transform="translate(0, 0)"><path d="M0 48.44L0 12.07L3.18 12.07L3.18 26.37L3.46 26.37Q4.00 25.14 5.00 23.85Q6.00 22.55 7.64 21.67Q9.29 20.79 11.79 20.79Q15.15 20.79 17.68 22.56Q20.22 24.33 21.64 27.49Q23.06 30.66 23.06 34.87Q23.06 39.10 21.65 42.28Q20.24 45.45 17.71 47.23Q15.18 49.01 11.84 49.01Q9.36 49.01 7.70 48.12Q6.04 47.23 5.02 45.93Q4.01 44.62 3.46 43.38L3.07 43.38L3.07 48.44L0 48.44M3.13 34.82Q3.13 38.12 4.11 40.67Q5.10 43.22 6.95 44.66Q8.81 46.11 11.45 46.11Q14.17 46.11 16.05 44.61Q17.93 43.11 18.91 40.55Q19.89 38.00 19.89 34.82Q19.89 31.68 18.92 29.15Q17.95 26.63 16.07 25.15Q14.19 23.67 11.45 23.67Q8.79 23.67 6.93 25.10Q5.08 26.53 4.10 29.04Q3.13 31.55 3.13 34.82ZM41.03 49.01Q37.22 49.01 34.43 47.22Q31.64 45.44 30.12 42.27Q28.60 39.10 28.60 34.96Q28.60 30.84 30.12 27.64Q31.64 24.43 34.33 22.61Q37.02 20.79 40.55 20.79Q42.77 20.79 44.83 21.60Q46.89 22.41 48.54 24.07Q50.18 25.73 51.14 28.24Q52.10 30.75 52.10 34.18L52.10 35.74L30.79 35.74L30.79 32.95L48.86 32.95Q48.86 30.33 47.81 28.22Q46.75 26.12 44.88 24.89Q43.00 23.67 40.55 23.67Q37.96 23.67 35.99 25.05Q34.02 26.44 32.91 28.71Q31.80 30.98 31.78 33.68L31.78 35.35Q31.78 38.60 32.91 41.02Q34.04 43.45 36.12 44.78Q38.19 46.11 41.03 46.11Q42.97 46.11 44.43 45.51Q45.90 44.90 46.90 43.88Q47.90 42.86 48.42 41.64L51.42 42.61Q50.80 44.34 49.39 45.79Q47.98 47.25 45.87 48.13Q43.77 49.01 41.03 49.01ZM62.20 31.39L62.20 48.44L59.04 48.44L59.04 12.07L62.20 12.07L62.20 25.44L62.48 25.44Q63.44 23.33 65.46 22.07Q67.47 20.81 70.56 20.81Q73.33 20.81 75.43 21.95Q77.52 23.08 78.69 25.30Q79.87 27.52 79.87 30.77L79.87 48.44L76.69 48.44L76.69 30.97Q76.69 27.59 74.81 25.65Q72.94 23.70 69.76 23.70Q67.58 23.70 65.87 24.63Q64.17 25.55 63.18 27.28Q62.20 29.01 62.20 31.39ZM95.83 49.06Q93.36 49.06 91.32 48.09Q89.28 47.12 88.07 45.29Q86.86 43.45 86.86 40.82Q86.86 38.80 87.62 37.41Q88.39 36.03 89.79 35.14Q91.19 34.25 93.11 33.74Q95.03 33.22 97.34 32.94Q99.63 32.65 101.22 32.44Q102.81 32.23 103.64 31.76Q104.47 31.30 104.47 30.27L104.47 29.63Q104.47 26.85 102.81 25.24Q101.15 23.63 98.05 23.63Q95.10 23.63 93.24 24.93Q91.39 26.23 90.64 27.98L87.64 26.90Q88.57 24.66 90.20 23.32Q91.83 21.98 93.86 21.39Q95.88 20.79 97.96 20.79Q99.52 20.79 101.22 21.20Q102.91 21.61 104.37 22.61Q105.82 23.62 106.73 25.40Q107.63 27.18 107.63 29.92L107.63 48.44L104.47 48.44L104.47 44.12L104.28 44.12Q103.71 45.33 102.59 46.47Q101.47 47.60 99.79 48.33Q98.10 49.06 95.83 49.06M96.25 46.16Q98.77 46.16 100.62 45.05Q102.47 43.93 103.47 42.07Q104.47 40.22 104.47 37.98L104.47 34.04Q104.12 34.38 103.29 34.64Q102.47 34.91 101.39 35.11Q100.32 35.32 99.25 35.46Q98.19 35.60 97.34 35.71Q95.03 35.99 93.39 36.59Q91.76 37.20 90.89 38.25Q90.02 39.31 90.02 40.96Q90.02 43.45 91.80 44.81Q93.57 46.16 96.25 46.16M96.77 17.38L101.31 9.32L105.06 9.32L99.61 17.38L96.77 17.38ZM116.03 48.44L116.03 21.16L119.11 21.16L119.11 25.36L119.39 25.36Q120.21 23.24 122.11 22.03Q124.02 20.81 126.70 20.81Q129.53 20.81 131.35 22.13Q133.17 23.46 134.07 25.76L134.30 25.76Q135.23 23.49 137.31 22.15Q139.40 20.81 142.38 20.81Q146.18 20.81 148.38 23.20Q150.59 25.59 150.59 30.17L150.59 48.44L147.43 48.44L147.43 30.17Q147.43 26.94 145.77 25.32Q144.12 23.70 141.42 23.70Q138.30 23.70 136.61 25.62Q134.93 27.54 134.93 30.49L134.93 48.44L131.69 48.44L131.69 29.88Q131.69 27.11 130.15 25.41Q128.60 23.70 125.80 23.70Q123.92 23.70 122.42 24.63Q120.92 25.55 120.06 27.19Q119.19 28.84 119.19 30.97L119.19 48.44L116.03 48.44ZM169.96 49.01Q166.14 49.01 163.35 47.22Q160.56 45.44 159.05 42.27Q157.53 39.10 157.53 34.96Q157.53 30.84 159.05 27.64Q160.56 24.43 163.25 22.61Q165.94 20.79 169.48 20.79Q171.70 20.79 173.76 21.60Q175.82 22.41 177.46 24.07Q179.10 25.73 180.06 28.24Q181.02 30.75 181.02 34.18L181.02 35.74L159.71 35.74L159.71 32.95L177.79 32.95Q177.79 30.33 176.73 28.22Q175.67 26.12 173.80 24.89Q171.93 23.67 169.48 23.67Q166.89 23.67 164.91 25.05Q162.94 26.44 161.83 28.71Q160.72 30.98 160.71 33.68L160.71 35.35Q160.71 38.60 161.83 41.02Q162.96 43.45 165.04 44.78Q167.12 46.11 169.96 46.11Q171.89 46.11 173.36 45.51Q174.82 44.90 175.83 43.88Q176.83 42.86 177.34 41.64L180.34 42.61Q179.72 44.34 178.31 45.79Q176.90 47.25 174.80 48.13Q172.69 49.01 169.96 49.01ZM205.18 31.39L205.18 48.44L202.02 48.44L202.02 21.16L205.10 21.16L205.10 25.44L205.38 25.44Q206.34 23.35 208.37 22.08Q210.40 20.81 213.41 20.81Q216.16 20.81 218.24 21.95Q220.33 23.10 221.49 25.32Q222.66 27.54 222.66 30.77L222.66 48.44L219.50 48.44L219.50 30.97Q219.50 27.61 217.62 25.66Q215.75 23.70 212.61 23.70Q210.46 23.70 208.79 24.63Q207.12 25.55 206.15 27.28Q205.18 29.01 205.18 31.39ZM238.62 49.06Q236.15 49.06 234.11 48.09Q232.07 47.12 230.86 45.29Q229.65 43.45 229.65 40.82Q229.65 38.80 230.42 37.41Q231.18 36.03 232.58 35.14Q233.98 34.25 235.90 33.74Q237.82 33.22 240.13 32.94Q242.42 32.65 244.01 32.44Q245.60 32.23 246.43 31.76Q247.27 31.30 247.27 30.27L247.27 29.63Q247.27 26.85 245.61 25.24Q243.95 23.63 240.84 23.63Q237.89 23.63 236.04 24.93Q234.18 26.23 233.43 27.98L230.43 26.90Q231.36 24.66 232.99 23.32Q234.62 21.98 236.65 21.39Q238.67 20.79 240.75 20.79Q242.31 20.79 244.01 21.20Q245.70 21.61 247.16 22.61Q248.62 23.62 249.52 25.40Q250.43 27.18 250.43 29.92L250.43 48.44L247.27 48.44L247.27 44.12L247.07 44.12Q246.50 45.33 245.38 46.47Q244.26 47.60 242.58 48.33Q240.89 49.06 238.62 49.06M239.04 46.16Q241.57 46.16 243.41 45.05Q245.26 43.93 246.26 42.07Q247.27 40.22 247.27 37.98L247.27 34.04Q246.91 34.38 246.08 34.64Q245.26 34.91 244.19 35.11Q243.11 35.32 242.05 35.46Q240.98 35.60 240.13 35.71Q237.82 35.99 236.19 36.59Q234.55 37.20 233.68 38.25Q232.81 39.31 232.81 40.96Q232.81 43.45 234.59 44.81Q236.36 46.16 239.04 46.16ZM276.05 31.39L276.05 48.44L272.89 48.44L272.89 12.07L276.05 12.07L276.05 25.44L276.33 25.44Q277.29 23.33 279.31 22.07Q281.32 20.81 284.41 20.81Q287.18 20.81 289.28 21.95Q291.37 23.08 292.54 25.30Q293.71 27.52 293.71 30.77L293.71 48.44L290.54 48.44L290.54 30.97Q290.54 27.59 288.66 25.65Q286.79 23.70 283.61 23.70Q281.43 23.70 279.72 24.63Q278.02 25.55 277.03 27.28Q276.05 29.01 276.05 31.39ZM312.66 49.01Q309.13 49.01 306.42 47.21Q303.71 45.42 302.18 42.25Q300.66 39.08 300.66 34.93Q300.66 30.74 302.18 27.55Q303.71 24.36 306.42 22.58Q309.13 20.79 312.66 20.79Q316.19 20.79 318.89 22.59Q321.59 24.38 323.13 27.56Q324.66 30.74 324.66 34.93Q324.66 39.08 323.14 42.25Q321.61 45.42 318.90 47.21Q316.19 49.01 312.66 49.01M312.66 46.11Q315.50 46.11 317.47 44.58Q319.44 43.06 320.46 40.52Q321.48 37.98 321.48 34.93Q321.48 31.87 320.46 29.31Q319.44 26.76 317.47 25.21Q315.50 23.67 312.66 23.67Q309.84 23.67 307.86 25.21Q305.88 26.76 304.86 29.31Q303.84 31.87 303.84 34.93Q303.84 37.98 304.86 40.52Q305.88 43.06 307.85 44.58Q309.82 46.11 312.66 46.11ZM331.61 48.44L331.61 21.16L334.68 21.16L334.68 25.36L334.91 25.36Q335.72 23.30 337.76 22.03Q339.79 20.76 342.37 20.76Q342.76 20.76 343.24 20.77Q343.71 20.79 344.03 20.81L344.03 24.02Q343.82 23.99 343.29 23.92Q342.76 23.85 342.13 23.85Q340.00 23.85 338.34 24.74Q336.68 25.64 335.72 27.22Q334.77 28.80 334.77 30.82L334.77 48.44L331.61 48.44ZM351.63 58.66Q350.69 58.66 349.88 58.49Q349.06 58.31 348.58 58.10L349.43 55.31Q351.05 55.81 352.31 55.67Q353.57 55.54 354.55 54.54Q355.52 53.53 356.29 51.47L357.28 48.70L347.25 21.16L350.67 21.16L358.77 44.26L359.02 44.26L367.12 21.16L370.54 21.16L359.00 52.75Q358.27 54.72 357.21 56.05Q356.14 57.37 354.75 58.02Q353.36 58.66 351.63 58.66Z"/></g></g></svg>