<?xml version="1.0" encoding="utf-8"?>
<svg xmlns="http://www.w3.org/2000/svg" viewBox="0 0 500 500" xmlns:bx="https://boxy-svg.com">
  <defs>
    <bx:export>
      <bx:file format="svg" href="#object-0"/>
    </bx:export>
    <bx:grid x="140.879" y="117.152" width="100" height="100"/>
  </defs>
  <rect width="141.907" height="141.907" fill="none" x="176" y="176" style="stroke-width: 1;"/>
  <ellipse style="stroke: rgb(0, 0, 0); transform-origin: 250px 250px;" cx="250" cy="250" rx="250.245" ry="250.245"/>
  <path d="M 296.376 486.776 L 296.376 365.34 L 245.378 316.782 L 226.546 400.56 C 224.934 407.051 221.394 412.008 215.922 415.45 C 210.475 418.896 204.514 419.998 198.018 418.757 L 77.807 394.48 C 70.942 393.282 65.691 389.815 62.029 384.148 C 58.388 378.486 57.189 372.244 58.388 365.34 C 59.61 358.478 63.031 353.107 68.717 349.269 C 74.386 345.432 80.641 344.311 87.544 345.92 L 179.801 365.34 L 218.64 168.654 L 174.942 185.653 L 174.942 243.927 C 174.942 250.821 172.601 256.58 167.94 261.243 C 163.271 265.91 157.524 268.248 150.663 268.208 C 143.779 268.208 138.034 265.846 133.368 261.222 C 128.705 256.559 126.384 250.821 126.384 243.927 L 126.384 169.876 C 126.384 165.019 127.7 160.668 130.339 156.831 C 132.995 152.995 136.495 150.041 140.964 148.018 L 222.296 112.798 C 236.465 106.719 246.91 102.808 253.559 100.975 C 260.27 99.167 266.429 98.26 272.094 98.221 C 280.589 98.221 288.463 100.442 295.74 104.891 C 303.023 109.356 308.903 115.219 313.35 122.499 L 337.648 161.376 C 346.15 175.128 357.187 187.07 370.742 197.182 C 384.315 207.294 399.978 213.962 417.761 217.211 C 424.671 218.433 430.413 221.463 435.077 226.32 C 439.781 231.198 442.06 237.065 442.06 243.927 C 442.04 250.821 439.718 256.465 435.077 260.928 C 430.413 265.375 424.866 267.203 418.395 266.376 C 396.535 263.172 376.092 256.386 357.068 246.032 C 338.044 235.706 321.85 222.878 308.511 207.513 L 293.95 280.37 L 337.648 321.625 C 340.068 324.082 341.899 326.781 343.119 329.847 C 344.318 332.896 344.949 336.024 344.949 339.232 L 344.949 486.776 C 344.949 493.639 342.605 499.426 337.922 504.083 C 333.264 508.749 327.517 511.071 320.635 511.052 C 313.805 511.014 308.018 508.688 303.357 504.048 C 298.693 499.405 296.376 493.639 296.376 486.776 M 308.511 86.081 C 295.151 86.081 283.704 81.321 274.22 71.839 C 264.718 62.336 259.973 50.881 259.933 37.522 C 259.914 24.144 264.679 12.716 274.22 3.234 C 283.737 -6.251 295.193 -11.013 308.511 -11.052 C 321.811 -11.074 333.264 -6.329 342.82 3.234 C 352.363 12.776 357.129 24.224 357.068 37.522 C 357.03 50.821 352.249 62.274 342.82 71.839 C 333.36 81.382 321.927 86.16 308.511 86.081" style="stroke-width: 1; fill: rgba(255, 255, 255, 0.8); transform-origin: 260.607px 257.414px;" id="object-0"/>
</svg>