<?xml version="1.0" encoding="utf-8"?>
<svg xmlns="http://www.w3.org/2000/svg" viewBox="0 0 500 500" xmlns:bx="https://boxy-svg.com">
  <defs>
    <bx:export>
      <bx:file format="svg" href="#object-0"/>
      <bx:file format="svg" href="#object-1" path="Untitled 2.svg"/>
    </bx:export>
    <bx:grid x="140.879" y="117.152" width="100" height="100"/>
  </defs>
  <rect width="141.907" height="141.907" fill="none" x="176" y="176" style="stroke-width: 1;"/>
  <ellipse style="stroke: rgb(0, 0, 0); transform-origin: 250.488px 250.799px;" cx="250.488" cy="250.799" rx="250.245" ry="250.245"/>
  <path d="M 75.186 503.742 C 137.836 482.872 224.485 479.092 279.58 451.554 C 303.499 439.567 337.823 448.512 360.655 437.103 C 374.333 430.263 389.784 396.009 399.543 396.009" style="stroke-width: 1; fill: rgba(255, 255, 255, 0.8); transform-origin: 251.714px 207.399px;" id="object-1"/>
  <path d="M 283.521 411.354 L 283.521 303.37 L 238.172 260.191 L 221.426 334.688 C 219.993 340.46 216.845 344.868 211.979 347.929 C 207.135 350.993 201.835 351.973 196.058 350.87 L 89.163 329.282 C 83.059 328.217 78.389 325.134 75.133 320.094 C 71.895 315.06 70.829 309.509 71.895 303.37 C 72.982 297.268 76.024 292.492 81.08 289.079 C 86.121 285.667 91.683 284.67 97.822 286.101 L 179.859 303.37 L 214.396 128.471 L 175.538 143.587 L 175.538 195.406 C 175.538 201.536 173.457 206.657 169.312 210.804 C 165.16 214.954 160.05 217.033 153.949 216.997 C 147.827 216.997 142.719 214.897 138.57 210.785 C 134.423 206.639 132.359 201.536 132.359 195.406 L 132.359 129.558 C 132.359 125.239 133.529 121.37 135.876 117.958 C 138.238 114.547 141.35 111.92 145.324 110.121 L 217.647 78.802 C 230.246 73.397 239.534 69.919 245.447 68.289 C 251.414 66.681 256.891 65.875 261.929 65.84 C 269.483 65.84 276.484 67.815 282.955 71.771 C 289.432 75.742 294.66 80.955 298.615 87.429 L 320.221 121.999 C 327.781 134.228 337.596 144.847 349.649 153.839 C 361.719 162.831 375.647 168.76 391.46 171.649 C 397.604 172.736 402.71 175.43 406.858 179.749 C 411.041 184.087 413.067 189.304 413.067 195.406 C 413.049 201.536 410.985 206.555 406.858 210.524 C 402.71 214.478 397.778 216.104 392.024 215.368 C 372.585 212.519 354.407 206.485 337.49 197.278 C 320.573 188.096 306.173 176.689 294.312 163.026 L 281.364 227.812 L 320.221 264.497 C 322.373 266.682 324.001 269.082 325.086 271.808 C 326.152 274.52 326.713 277.301 326.713 280.154 L 326.713 411.354 C 326.713 417.457 324.629 422.603 320.465 426.744 C 316.323 430.893 311.212 432.958 305.093 432.941 C 299.019 432.907 293.873 430.839 289.729 426.713 C 285.581 422.584 283.521 417.457 283.521 411.354 M 294.312 55.045 C 282.432 55.045 272.253 50.812 263.819 42.38 C 255.37 33.93 251.15 23.744 251.115 11.865 C 251.098 -0.031 255.335 -10.193 263.819 -18.625 C 272.282 -27.059 282.469 -31.294 294.312 -31.329 C 306.138 -31.348 316.323 -27.129 324.82 -18.625 C 333.306 -10.14 337.544 0.04 337.49 11.865 C 337.456 23.691 333.205 33.875 324.82 42.38 C 316.408 50.866 306.242 55.115 294.312 55.045" style="stroke-width: 1; fill: rgba(255, 255, 255, 0.8); transform-origin: 251.714px 207.399px;" id="object-0"/>
</svg>