<?xml version="1.0" encoding="utf-8"?>
<svg xmlns="http://www.w3.org/2000/svg" viewBox="0 0 500 500" xmlns:bx="https://boxy-svg.com">
  <defs>
    <bx:export>
      <bx:file format="svg" href="#object-0"/>
      <bx:file format="svg" href="#object-1" path="Untitled 2.svg"/>
    </bx:export>
    <bx:grid x="140.879" y="117.152" width="100" height="100"/>
  </defs>
  <rect x="-13.346" width="514.088" height="514.088" style="fill: rgb(255, 255, 255);" y="-14.088"/>
  <rect width="141.907" height="141.907" fill="none" x="176" y="176" style="stroke-width: 1;"/>
  <path d="M 104.221 467.41 C 155.736 450.249 226.986 447.141 272.29 424.497 C 291.957 414.641 320.18 421.996 338.954 412.614 C 350.201 406.99 362.907 378.824 370.931 378.824" style="fill: color(srgb 0 0 0 / 0.8); stroke-width: 1;" id="object-1"/>
  <path d="M 275.529 391.441 L 275.529 302.649 L 238.24 267.145 L 224.47 328.402 C 223.292 333.148 220.704 336.772 216.702 339.288 C 212.72 341.808 208.361 342.615 203.611 341.707 L 115.714 323.956 C 110.695 323.08 106.855 320.545 104.177 316.401 C 101.515 312.261 100.639 307.698 101.515 302.649 C 102.409 297.632 104.91 293.704 109.068 290.898 C 113.212 288.093 117.786 287.272 122.834 288.45 L 190.291 302.649 L 218.69 158.834 L 186.738 171.264 L 186.738 213.874 C 186.738 218.914 185.027 223.125 181.618 226.535 C 178.205 229.947 174.003 231.656 168.986 231.627 C 163.952 231.627 159.751 229.901 156.34 226.519 C 152.93 223.11 151.233 218.914 151.233 213.874 L 151.233 159.728 C 151.233 156.177 152.196 152.996 154.125 150.19 C 156.067 147.385 158.627 145.225 161.894 143.746 L 221.364 117.993 C 231.723 113.548 239.36 110.689 244.222 109.349 C 249.129 108.027 253.633 107.364 257.775 107.335 C 263.987 107.335 269.743 108.959 275.065 112.212 C 280.39 115.477 284.689 119.763 287.941 125.087 L 305.707 153.513 C 311.923 163.568 319.994 172.3 329.905 179.694 C 339.829 187.087 351.282 191.964 364.285 194.339 C 369.337 195.232 373.535 197.448 376.946 200.999 C 380.386 204.566 382.052 208.856 382.052 213.874 C 382.038 218.914 380.34 223.041 376.946 226.305 C 373.535 229.556 369.48 230.893 364.749 230.288 C 348.765 227.945 333.817 222.983 319.907 215.413 C 305.996 207.863 294.155 198.483 284.402 187.248 L 273.756 240.52 L 305.707 270.685 C 307.476 272.482 308.815 274.455 309.708 276.697 C 310.584 278.927 311.045 281.214 311.045 283.56 L 311.045 391.441 C 311.045 396.46 309.332 400.691 305.908 404.097 C 302.501 407.508 298.299 409.207 293.267 409.192 C 288.273 409.164 284.041 407.463 280.635 404.071 C 277.224 400.675 275.529 396.46 275.529 391.441 M 284.402 98.458 C 274.635 98.458 266.263 94.978 259.33 88.044 C 252.382 81.097 248.912 72.721 248.883 62.953 C 248.869 53.171 252.353 44.815 259.33 37.882 C 266.289 30.946 274.664 27.464 284.402 27.435 C 294.126 27.42 302.501 30.889 309.488 37.882 C 316.467 44.859 319.951 53.229 319.907 62.953 C 319.879 72.677 316.383 81.051 309.488 88.044 C 302.571 95.022 294.213 98.516 284.402 98.458" fill="currentColor" style="stroke-width: 1;" id="object-0"/>
</svg>